<svg xmlns="http://www.w3.org/2000/svg" viewBox="0 0 368.85 365.06"><defs><style>.cls-1{fill:#1f2421;}</style></defs><title>Deals-Dark</title><g id="Layer_2" data-name="Layer 2"><g id="Layer_1-2" data-name="Layer 1"><path class="cls-1" d="M213.81,338.44H210q-90.09,0-180.17,0C13,338.43,0,325.61,0,308.69Q0,198.19,0,87.7,0,58.88,0,30.06C0,15,9.55,3.32,24.23.43A31.26,31.26,0,0,1,30.12,0q53,0,106,0h101c18.16,0,30.52,12.33,30.53,30.5q0,72.32,0,144.64a14.1,14.1,0,0,1-1.06,5.41q-21.3,50.3-42.75,100.52c-2,4.78-3.29,9.61-2,14.84a3.56,3.56,0,0,1-.35,2.62c-5.39,7.39-6.53,16-7,24.72C214.15,328.2,214,333.15,213.81,338.44ZM126.64,185.23q42.4,0,84.8,0c8.28,0,14.14-5.42,14.15-13s-5.8-13-14.06-13q-84.92,0-169.82,0c-8.29,0-13.92,5.39-13.9,13.11,0,7.44,6,13,14.06,13.06,5.19,0,10.38-.15,15.56-.15Q92,185.21,126.64,185.23Zm-.21-50.46h53c11,0,22,.06,33,0a12.52,12.52,0,0,0,11.5-6.76,12.32,12.32,0,0,0-.5-13.29c-3-4.72-7.6-6-12.89-6q-83.05,0-166.09,0a34.68,34.68,0,0,0-5.59.28,12.9,12.9,0,0,0-7.75,21.44c2.92,3.26,6.64,4.37,10.89,4.36Q84.22,134.74,126.43,134.77Zm.13-76.37H46.78c-2.5,0-5-.07-7.48.11A12.65,12.65,0,0,0,27.82,70.44c-.29,8.18,5.3,13.84,13.76,13.84q84.9,0,169.8,0c.72,0,1.45,0,2.18,0a13,13,0,0,0,11.71-15.6c-1.48-6.58-6.4-10.23-14-10.24Q168.93,58.38,126.56,58.4ZM75.45,239.46c-11.74,0-23.48,0-35.22,0a12.08,12.08,0,0,0-12.44,12.34q-.08,10.6,0,21.19c.08,7.56,5.2,12.59,12.83,12.61q34.59,0,69.18,0c7.79,0,12.9-5.12,12.94-12.85,0-6.75,0-13.5,0-20.25,0-8-5.07-13-13-13C98.3,239.45,86.87,239.47,75.45,239.46Z"/><path class="cls-1" d="M351.68,129.78q-5.73,13.51-11.43,26.93-31.35,73.75-62.71,147.51c-2.43,5.7-4.79,6.63-10.46,4.22-8.69-3.7-17.39-7.36-26.06-11.09-4.94-2.12-6.05-4.77-4-9.61q22.56-53.16,45.15-106.3,9.91-23.31,19.81-46.63c4.75-11.16,9.54-22.32,14.28-33.49a22.83,22.83,0,0,1,12-12A8.18,8.18,0,0,0,331.54,86c1.22-2.15,1.94-4.58,3-6.81a13.65,13.65,0,0,1,24.77,11.47c-.12.29-.24.57-.38.85-2.23,4.36-3.68,8.52-1.34,13.61,1.92,4.17.56,8.75-1,13a3.52,3.52,0,0,0,.6,3.08c11.5,11,14.63,24.38,8.54,38.86-10.69,25.43-21.58,50.78-32.4,76.16-1.53,3.58-4.22,4.86-7.07,3.5-2.32-1.1-3.22-3.79-2-6.69,3.21-7.66,6.51-15.27,9.76-22.91,7.86-18.53,15.76-37,23.55-55.6C361.12,146.28,358.29,134.61,351.68,129.78Z"/><path class="cls-1" d="M225.05,362.08c1.2-2.86,2.33-5.09,3.06-7.44a15.52,15.52,0,0,0,.19-4.22c0-.41-.17-.82-.15-1.22.59-11.1,1.08-22.2,1.91-33.27a20.69,20.69,0,0,1,2.58-7.53,3.83,3.83,0,0,1,3.48-1.26q14.13,5.72,28.06,11.94c.8.36,1.57,2.62,1.19,3.49-1.31,3-2.71,6.17-4.85,8.58-6.84,7.67-13.64,15.47-21.28,22.29-3.16,2.82-4.28,6.17-6.33,9.3a6,6,0,0,1-4.4,2.32C227.38,365.06,226.26,363.19,225.05,362.08Z"/></g></g></svg>