<svg xmlns="http://www.w3.org/2000/svg" viewBox="0 0 280.49 287.98"><defs><style>.cls-1{fill:#1f2421;}</style></defs><title>Closed-Dark</title><g id="Layer_2" data-name="Layer 2"><g id="Layer_1-2" data-name="Layer 1"><path class="cls-1" d="M170,154.44l-28.7,1.25q-34,0-43.37-3.12A143.67,143.67,0,0,1,81.43,146q-14-6.87-14-23.4,0-9,17.16-26.84,36.2-37.44,103.27-47.42,34.63-35.25,53-46.8A9,9,0,0,1,245.54,0a8.35,8.35,0,0,1,3.75,1.56q5.29,4.06,5.3,5.3a3,3,0,0,1-.93,2.19q-22.47,21.53-35.88,36.81,14,0,34.63,5.93a43.79,43.79,0,0,1,20.12,11.7,27.56,27.56,0,0,1,8,19.81q0,5.31-6.24,11.24t-21.53,10.92q-15.28,5-37.44,5t-22.15-4.06q0-3.11,16.22-7.33t32.45-10Q258,83.31,258,76.44,258,73,245.54,73q-81.73,0-140.08,42.12-10.93,8.12-10.92,14,0,9.36,58.65,9.36,52.42.63,52.42,28.08,0,20.59-27.93,38.37T109.2,233.06l-3.12,5Q77.69,278,73.63,284.86c-.42,2.07-1.56,3.12-3.43,3.12s-3.8-1.77-5.77-5.31a23.86,23.86,0,0,1-3-11.85q0-10.62,15-31.2a192.38,192.38,0,0,1-28.86,2.18q-14.51,0-31-8T0,214.66q0-3.43,6.24-3.75,33.07-3.74,42.12-7.8a17.48,17.48,0,0,1,3.9-.62c.94,0,1.4.21,1.4.62,0,1.87-2.34,3.7-7,5.46S39,211.49,37.75,212s-1.87,1.05-1.87,1.56,2.5.78,7.49.78S62.09,211.9,84.55,207a422.38,422.38,0,0,0,66.93-20.59q33.22-13.26,33.22-25.74,0-2.81-4.36-4.52A28.23,28.23,0,0,0,170,154.44Z"/></g></g></svg>