<svg xmlns="http://www.w3.org/2000/svg" viewBox="0 0 326.05 313.21"><defs><style>.cls-1{fill:#1f2421;}</style></defs><title>Launch-Dark</title><g id="Layer_2" data-name="Layer 2"><g id="Layer_1-2" data-name="Layer 1"><path class="cls-1" d="M326.05,0C318.7,55.28,302.5,104.12,267.5,145.09c-27.86,32.62-64.09,52.21-104.6,64.69-3.63,1.11-5.38.35-7.4-2.67A162.6,162.6,0,0,0,115,165.36c-2.43-1.74-4.07-3-2.79-6.73,10.49-30.44,24.86-58.67,46.49-82.81,29.66-33.11,67.47-52.65,109.71-64C286.75,6.9,305.63,4.12,326.05,0ZM245.67,106.77a27.94,27.94,0,0,0,28-27.48c.26-15.09-12.22-27.8-27.47-28a27.74,27.74,0,1,0-.54,55.47Z"/><path class="cls-1" d="M79.26,234.7c21.28-4.09,41.77-6,53.05-26.59,12.14,16.33,9.08,44.44-6.5,57a52.59,52.59,0,0,1-14.41,8.67c-36.57,13.36-73.29,26.33-110,39.43L0,311.42l44.71-41.49c-4.53,1.2-8.27,1.93-11.81,3.22-3.82,1.38-7.45,3.28-12.24,5.44,1.92-3.95,3.23-7,4.84-9.94,9.44-17,14.57-35.62,19.67-54.23,4.47-16.31,13.37-28.55,30.74-32.88,9.49-2.36,18.77-1.61,29.07,1.48C86.43,195.24,83.14,214.19,79.26,234.7Z"/><path class="cls-1" d="M162.12,216.24l54.48-22.5-2.43,8.59-13.26,46.79c-3,10.66-4.49,11.09-12,3.32C178.22,241.52,166.28,231.55,162.12,216.24Z"/><path class="cls-1" d="M130.25,104.64C122,123,114.08,140.52,105.43,159.71c-6.56-4.77-13.3-9.11-19.36-14.25s-11.58-11-17.17-16.74c-4.94-5-4.29-7.5,2.34-9.19C90.71,114.56,110.21,109.69,130.25,104.64Z"/></g></g></svg>