<svg xmlns="http://www.w3.org/2000/svg" viewBox="0 0 266.98 266.53"><defs><style>.cls-1{fill:#dce1de;}</style></defs><title>Numbers-Light</title><g id="Layer_2" data-name="Layer 2"><g id="Layer_1-2" data-name="Layer 1"><path class="cls-1" d="M125.38,15.56c2.93-1.21,5.84-1.43,8.67-1.9,16.85-2.84,33.73-5.5,50.58-8.37,9.81-1.66,19.66-3,29.4-5.09,2.28-.48,2.53-.22,1.7,2.15-2.2,6.26-4.41,12.52-6.72,18.74q-11.4,30.58-22.9,61.16c-.54,1.42-.84,3-1.9,4.12-.89-.22-1.25-.88-1.71-1.44q-7.32-8.88-14.66-17.76c-2.68-3.23-2.2-2.73-5.09-.78-15,10.18-30,20.41-45.7,29.59-29,17-59.86,29.37-92.86,36.16a35.18,35.18,0,0,1-7.38,1A16,16,0,0,1,2.64,125c-4.14-6.74-3.17-12.88,1.23-18.83,2.7-3.66,6.89-5.26,11.23-6.15A263.89,263.89,0,0,0,66.59,83.84a373.47,373.47,0,0,0,64.73-36.32c3.58-2.49,7.18-4.94,10.75-7.44,2.13-1.48,2.13-1.51.53-3.47q-7.2-8.79-14.42-17.56C127.27,17.94,126.38,16.81,125.38,15.56Z"/><path class="cls-1" d="M267,175c0,24.7,0,49.39,0,74.09,0,7.28-3.17,12.68-10.09,15.68a18.68,18.68,0,0,1-8.09,1.71c-5.39-.13-10.79,0-16.18-.05-6.66-.05-13.94-6.13-15.17-12.64a33.66,33.66,0,0,1-.55-6.18q0-73,0-146a23.79,23.79,0,0,1,.68-5.86c1.61-6.45,5.76-10.69,12.25-11.8a76.84,76.84,0,0,1,23.55-.15A16.2,16.2,0,0,1,267,100c0,18.16,0,36.32,0,54.48Z"/><path class="cls-1" d="M200,191.22q0,28,0,56.06a24.75,24.75,0,0,1-1.38,8.86c-2.48,6.66-9.68,10.55-14.92,10.37-5.81-.21-11.63.08-17.44-.09-5.23-.14-14.19-4.89-15.43-12a32.84,32.84,0,0,1-.73-5.86q0-57,0-114c0-6.72,2.52-12.1,8.27-15.78a12.69,12.69,0,0,1,6.45-2c6.64-.24,13.26-.46,19.91,0a16,16,0,0,1,15.11,14.66c.09,1.24.08,2.49.08,3.74v56.06Z"/><path class="cls-1" d="M83.52,208.09q0-19.92,0-39.83c0-5.07,1.4-9.61,5-13.31a16.1,16.1,0,0,1,11.66-5.06c5.5-.08,11-.12,16.49,0,10.46.27,16.31,7.79,16.72,15.53.09,1.86.26,3.71.26,5.58q0,37.5,0,75a32.47,32.47,0,0,1-.93,8.62,16.59,16.59,0,0,1-15.44,11.83c-5.49,0-11,0-16.49,0-8.22.09-17.31-6.47-17.19-16.38,0-3.31,0-6.63,0-10v-32Z"/><path class="cls-1" d="M66.68,225c0,8-.13,16,0,24,.2,9.6-5.32,14.71-12.29,17a11.5,11.5,0,0,1-3.66.49c-5.7,0-11.42.17-17.12,0-8.51-.32-16.75-6.63-16.74-16.19,0-12.45,0-24.9-.06-37.35,0-4.15,0-8.3.07-12.45.15-10.17,6.64-16.7,16.72-17q8.55-.27,17.09,0c9.28.32,15.78,6.76,15.9,16.05.1,8.51,0,17,0,25.53Z"/></g></g></svg>