<svg xmlns="http://www.w3.org/2000/svg" viewBox="0 0 301.84 280.87"><defs><style>.cls-1{fill:#dce1de;}</style></defs><title>Tasks-Light</title><g id="Layer_2" data-name="Layer 2"><g id="Layer_1-2" data-name="Layer 1"><path class="cls-1" d="M0,157.91q0-35.35,15.22-52.84T55.1,86.77q10.69-.4,14.4,20.15t3.29,46.88a34.06,34.06,0,0,0,4.73,17.27q4.71,8.24,11.72,8.22a25.83,25.83,0,0,0,4.72-.41,16.71,16.71,0,0,0,5.14-2c1.92-1.1,3.71-2.12,5.35-3.09a42.24,42.24,0,0,0,6.37-4.93c2.61-2.33,5-4.53,7.2-6.58s5.28-5.07,9.25-9,7.54-7.61,10.7-10.9,7.53-7.74,13.15-13.36L167,113.09l71.55-70.32q27.14-25.91,42.36-37Q289.09,0,292.79,0C295,0,297,1.72,299,5.14s2.88,7.75,2.88,13a80.77,80.77,0,0,1-1.65,17.07A43.69,43.69,0,0,1,294,49.76q-4.53,7-7.81,11.1T274.9,73.4q-8,8.44-12.13,13-25.5,30-39.48,45.64l-56.74,57.16Q144.74,211,105.07,245.91t-45.85,35q-14.4,0-33.52-16T6.58,221.24q0-13.58-3.29-34.34T0,157.91Z"/></g></g></svg>